<svg xmlns="http://www.w3.org/2000/svg" width="24" height="24" viewBox="0 0 24 24" fill="none" stroke="currentColor" stroke-width="2" stroke-linecap="round" stroke-linejoin="round">
  <path d="M9 11.2a.8.8 0 1 0 0-1.6.8.8 0 0 0 0 1.6z"/>
  <path d="M15 11.2a.8.8 0 1 0 0-1.6.8.8 0 0 0 0 1.6z"/>
  <path d="M8.3 14.8s1.5 1.6 3.7 1.6 3.7-1.6 3.7-1.6"/>
  <path d="M19.4 7.2A19 19 0 0 0 15.8 6a.1.1 0 0 0-.1 0 13 13 0 0 0-.6 1.2 18 18 0 0 0-6.2 0 13 13 0 0 0-.6-1.2l-.1-.1a19 19 0 0 0-3.6 1.2 19 19 0 0 0-3.5 14 .2.2 0 0 0 0 .1 19.4 19.4 0 0 0 5.8 3c.1 0 .2 0 .2-.1l1-1.3.1-.1c-1.8-.5-2.7-1.4-2.7-1.4l.6.4.9.4c.7.3 1.4.6 2 .8a12.5 12.5 0 0 0 7.4 0c.6-.2 1.3-.5 2-.8l.9-.4.6-.4s-.9.8-2.7 1.4l.1.1 1 1.3c0 .1.1.1.2.1a19.4 19.4 0 0 0 5.8-3v-.1a19 19 0 0 0-3.5-14zM8.5 15.6c-1.1 0-2-.9-2-2.1s.9-2.1 2-2.1 2 .9 2 2.1-.9 2.1-2 2.1zm7 0c-1.1 0-2-.9-2-2.1s.9-2.1 2-2.1 2 .9 2 2.1-.9 2.1-2 2.1z"/>
</svg> 